<svg width="97" height="17" viewBox="0 0 97 17" fill="none" xmlns="http://www.w3.org/2000/svg">
<g clip-path="url(#clip0)">
<path d="M62.9554 2.58573C62.7135 2.3518 62.5938 2.06644 62.5938 1.72719C62.5938 1.38793 62.7147 1.09889 62.9554 0.860069C63.1961 0.62002 63.4886 0.501221 63.8292 0.501221C64.1711 0.501221 64.4599 0.621245 64.6944 0.860069C64.9301 1.10012 65.0474 1.38916 65.0474 1.72719C65.0474 2.06644 64.9264 2.3518 64.6858 2.58573C64.4439 2.81965 64.1588 2.936 63.8292 2.936C63.4873 2.936 63.1961 2.81965 62.9554 2.58573Z" fill="#2A2F3D"/>
<path d="M6.4637 13.0658C6.35755 12.8785 6.27486 12.511 6.21685 11.9623C5.60467 12.838 4.62715 13.2765 3.28554 13.2765C2.28457 13.2765 1.48725 13.0364 0.892353 12.5576C0.297451 12.0775 0 11.4124 0 10.5588C0 8.91152 1.16512 7.97092 3.49659 7.73822L4.874 7.61574C5.33314 7.55696 5.66268 7.44918 5.86262 7.29119C6.06257 7.1332 6.16254 6.89682 6.16254 6.58206C6.16254 6.19627 6.03665 5.91336 5.78363 5.7321C5.53061 5.55083 5.10357 5.4602 4.50249 5.4602C3.85452 5.4602 3.39045 5.56798 3.10781 5.78476C2.82517 6.00031 2.66101 6.37141 2.61288 6.89682H0.423343C0.552938 4.84048 1.91924 3.81293 4.52101 3.81293C7.05243 3.81293 8.31752 4.71801 8.31752 6.5294V11.3488C8.31752 12.1436 8.44094 12.7156 8.68902 13.0658H6.4637ZM5.50963 11.1283C5.94532 10.7486 6.16254 10.2024 6.16254 9.4896V8.66657C5.95025 8.85273 5.60343 8.97643 5.12085 9.03399L3.91993 9.17361C3.3312 9.24342 2.91033 9.3806 2.65731 9.58513C2.40429 9.78966 2.27717 10.0848 2.27717 10.4706C2.27717 10.8564 2.40923 11.1565 2.67459 11.3732C2.93995 11.59 3.31886 11.6978 3.81379 11.6978C4.5099 11.6978 5.07395 11.508 5.50963 11.1283Z" fill="#2A2F3D"/>
<path d="M19.3564 5.09153C20.0859 5.9562 20.4512 7.10745 20.4512 8.54407C20.4512 9.96967 20.0859 11.1148 19.3564 11.9795C18.6147 12.8441 17.6199 13.2765 16.372 13.2765C15.1353 13.2765 14.1936 12.8147 13.5469 11.8925V16.5012H11.3203V4.02233H13.4568V5.31933C14.1159 4.31504 15.0872 3.81168 16.3708 3.81168C17.6199 3.81168 18.6147 4.23911 19.3564 5.09153ZM15.8413 11.4528C16.5708 11.4528 17.1484 11.1895 17.5717 10.6641C17.984 10.1497 18.1901 9.41976 18.1901 8.47304C18.1901 7.54958 17.9864 6.84658 17.5804 6.36158C17.1743 5.87659 16.5942 5.63409 15.8413 5.63409C15.0995 5.63409 14.5219 5.88516 14.1109 6.3873C13.6987 6.88945 13.4926 7.60837 13.4926 8.54285C13.4926 9.48957 13.7049 10.2073 14.1282 10.6984C14.5281 11.2018 15.0995 11.4528 15.8413 11.4528Z" fill="#2A2F3D"/>
<path d="M30.7966 5.09153C31.526 5.9562 31.8914 7.10745 31.8914 8.54407C31.8914 9.96967 31.526 11.1148 30.7966 11.9795C30.0548 12.8441 29.06 13.2765 27.8122 13.2765C26.5755 13.2765 25.6338 12.8147 24.987 11.8925V16.5012H22.7617V4.02233H24.8982V5.31933C25.5573 4.31504 26.5286 3.81168 27.8122 3.81168C29.06 3.81168 30.0548 4.23911 30.7966 5.09153ZM27.2815 11.4528C28.0109 11.4528 28.5886 11.1895 29.0119 10.6641C29.4241 10.1497 29.6303 9.41976 29.6303 8.47304C29.6303 7.54958 29.4266 6.84658 29.0205 6.36158C28.6145 5.87659 28.0344 5.63409 27.2815 5.63409C26.5397 5.63409 25.9621 5.88516 25.5511 6.3873C25.1389 6.88945 24.9327 7.60837 24.9327 8.54285C24.9327 9.48957 25.145 10.2073 25.5684 10.6984C25.9683 11.2018 26.5397 11.4528 27.2815 11.4528Z" fill="#2A2F3D"/>
<path d="M33.9043 10.1914H36.0766C36.1358 10.7523 36.3209 11.1491 36.6332 11.383C36.9455 11.617 37.4367 11.7333 38.1081 11.7333C39.309 11.7333 39.9101 11.3708 39.9101 10.647C39.9101 10.32 39.7805 10.0689 39.5213 9.89376C39.2621 9.71862 38.7968 9.57288 38.1266 9.4553L37.0849 9.28016C35.0953 8.95316 34.1005 8.04195 34.1005 6.54655C34.1005 5.69413 34.4301 5.02419 35.0892 4.54042C35.7482 4.05543 36.6789 3.81293 37.8798 3.81293C40.4815 3.81293 41.8244 4.83558 41.9071 6.87967H39.8052C39.7817 6.34201 39.6114 5.9599 39.293 5.73209C38.9745 5.50429 38.5043 5.39039 37.8798 5.39039C36.8208 5.39039 36.2901 5.74067 36.2901 6.44244C36.2901 6.74618 36.4073 6.98255 36.6431 7.15157C36.8788 7.32058 37.2664 7.45285 37.8082 7.54593L38.956 7.72107C40.0631 7.91948 40.8666 8.23546 41.3665 8.66779C41.8664 9.10013 42.1169 9.70147 42.1169 10.4731C42.1169 11.3843 41.7639 12.0848 41.0567 12.5759C40.3507 13.0671 39.3559 13.312 38.0723 13.312C35.4113 13.3108 34.0215 12.271 33.9043 10.1914Z" fill="#2A2F3D"/>
<path d="M57.349 4.68859C57.9081 5.27279 58.1882 6.07255 58.1882 7.08908V13.0646H55.9629V7.43936C55.9629 6.29422 55.4384 5.72227 54.3905 5.72227C53.8252 5.72227 53.3698 5.92435 53.0217 6.32729C52.6749 6.73023 52.5009 7.31688 52.5009 8.08847V13.0658H50.2928V7.43936C50.2928 6.29422 49.7633 5.72227 48.7031 5.72227C48.1502 5.72227 47.6997 5.92435 47.3516 6.32729C47.0036 6.73023 46.8308 7.31688 46.8308 8.08847V13.0658H44.6055V4.02233H46.7604V5.31933C47.3837 4.31504 48.2502 3.81168 49.356 3.81168C50.7458 3.81168 51.6875 4.37261 52.1824 5.49447C52.865 4.37261 53.8067 3.81168 55.0076 3.81168C56.0098 3.81168 56.7898 4.10439 57.349 4.68859Z" fill="#2A2F3D"/>
<path d="M75.2375 5.70516H72.3901V10.5943C72.3901 10.887 72.4691 11.0916 72.6283 11.2079C72.7875 11.3243 73.0554 11.3831 73.4318 11.3831H75.0573V13.0658C74.5747 13.1124 73.3195 13.1357 73.0257 13.1357C72.0371 13.1357 71.3163 12.9519 70.8621 12.5833C70.4092 12.2147 70.1821 11.628 70.1821 10.8221V5.70516H68.1172V4.02237H70.1833V1.00461H72.3913V4.02359H75.2387V5.70516H75.2375Z" fill="#2A2F3D"/>
<path d="M85.191 4.66168C85.7625 5.22874 86.0476 6.03094 86.0476 7.07197V13.0658H83.8223V7.43939C83.8223 6.29426 83.2508 5.72231 82.1092 5.72231C81.5439 5.72231 81.0638 5.92317 80.67 6.32733C80.2763 6.73027 80.0788 7.28753 80.0788 8.00033V13.0646H77.8535V1.00339H80.0788V5.23119C80.7737 4.28447 81.6982 3.81172 82.8509 3.81172C83.8396 3.81172 84.6196 4.09586 85.191 4.66168Z" fill="#2A2F3D"/>
<path d="M96.5328 14.3616H87.8438V16.0444H96.5328V14.3616Z" fill="#FF6D2D"/>
<path d="M64.9595 11.383V4.02234H60.2793V5.70513H62.7342V11.383H60.2793V13.0658H67.4144V11.383H64.9595Z" fill="#2A2F3D"/>
</g>
<defs>
<clipPath id="clip0">
<rect width="96.5333" height="16" fill="white" transform="translate(0 0.5)"/>
</clipPath>
</defs>
</svg>
